<svg width="171" height="171" viewBox="0 0 171 171" fill="none" xmlns="http://www.w3.org/2000/svg">
<path fill-rule="evenodd" clip-rule="evenodd" d="M110.543 5.67506C114.196 5.72717 117.834 6.13512 121.408 6.89311L110.413 14.6399L99.6473 6.57721C103.241 5.92305 106.89 5.62069 110.543 5.6744L110.543 5.67506ZM58.9795 107.745C59.4171 107.32 60.0058 107.086 60.6159 107.095C61.226 107.104 61.8076 107.354 62.2328 107.792C62.6579 108.23 62.8918 108.818 62.883 109.429C62.8741 110.039 62.6233 110.62 62.1856 111.045L8.1068 163.579C7.66914 164.004 7.08051 164.238 6.4704 164.229C5.8603 164.22 5.27869 163.969 4.85353 163.532C4.42837 163.094 4.19448 162.505 4.20332 161.895C4.21216 161.285 4.463 160.704 4.90066 160.278L58.9795 107.745ZM82.7603 123.669L44.4751 160.859C44.0374 161.284 43.7866 161.866 43.7777 162.476C43.7689 163.086 44.0028 163.675 44.428 164.113C44.8531 164.55 45.4347 164.801 46.0448 164.81C46.6549 164.819 47.2436 164.585 47.6812 164.16L85.9658 126.967C86.1825 126.757 86.3557 126.506 86.4753 126.228C86.595 125.951 86.6588 125.653 86.6632 125.351C86.6676 125.048 86.6124 124.748 86.5008 124.468C86.3893 124.187 86.2235 123.931 86.013 123.714C85.8024 123.497 85.5513 123.324 85.2739 123.205C84.9965 123.085 84.6982 123.021 84.3961 123.017C84.094 123.012 83.794 123.068 83.5132 123.179C83.2325 123.291 82.9764 123.457 82.7597 123.667L82.7603 123.669ZM43.7533 83.5119L5.47472 120.697C5.03706 121.122 4.78622 121.704 4.77738 122.314C4.76854 122.924 5.00243 123.513 5.42759 123.951C5.85275 124.388 6.43435 124.639 7.04446 124.648C7.65457 124.657 8.2432 124.423 8.68086 123.998L46.9588 86.8117C47.3965 86.3865 47.6473 85.8049 47.6562 85.1948C47.665 84.5847 47.4311 83.9961 47.0059 83.5584C46.5808 83.1207 45.9992 82.8699 45.3891 82.8611C44.779 82.8522 44.1903 83.0861 43.7527 83.5113L43.7533 83.5119ZM118.786 127.695C119.003 127.485 119.259 127.319 119.54 127.207C119.82 127.096 120.12 127.041 120.422 127.045C120.725 127.05 121.023 127.113 121.3 127.233C121.578 127.353 121.829 127.526 122.039 127.742C122.25 127.959 122.416 128.215 122.527 128.496C122.639 128.777 122.694 129.077 122.689 129.379C122.685 129.681 122.621 129.979 122.502 130.257C122.382 130.534 122.209 130.785 121.992 130.996L87.2623 164.733C87.0456 164.943 86.7896 165.109 86.5088 165.221C86.228 165.332 85.928 165.387 85.6259 165.383C85.3238 165.379 85.0256 165.315 84.7481 165.195C84.4707 165.075 84.2196 164.902 84.009 164.686C83.7985 164.469 83.6328 164.213 83.5212 163.932C83.4096 163.651 83.3545 163.351 83.3588 163.049C83.3632 162.747 83.4271 162.449 83.5467 162.171C83.6663 161.894 83.8395 161.643 84.0562 161.432L118.786 127.695ZM40.773 47.3828C41.2106 46.9576 41.7993 46.7237 42.4094 46.7326C43.0195 46.7414 43.6011 46.9922 44.0262 47.4299C44.4514 47.8676 44.6853 48.4562 44.6764 49.0663C44.6676 49.6764 44.4168 50.258 43.9791 50.6832L9.25361 84.4156C8.81595 84.8408 8.22732 85.0747 7.61722 85.0658C7.00711 85.057 6.4255 84.8061 6.00034 84.3685C5.57518 83.9308 5.3413 83.3422 5.35013 82.7321C5.35897 82.122 5.60981 81.5404 6.04747 81.1152L40.773 47.3828ZM112.409 35.6897L133.915 51.7967L150.163 46.7765L155.895 29.9735C148.94 19.8462 138.854 12.2821 127.184 8.44303L112.655 18.6804L112.409 35.6897ZM136.223 55.8904L151.519 51.1646L165.71 61.7914C165.703 74.0882 161.626 86.0369 154.116 95.7735L136.391 95.5167L127.171 82.4331L136.223 55.8891L136.223 55.8904ZM123.774 85.5888L95.0027 85.172L85.7772 97.4905L91.0097 114.428C102.601 118.518 115.213 118.701 126.918 114.948L132.639 98.1694L123.774 85.5888ZM91.6979 81.9192L82.0961 94.7403L64.3838 94.4838C57.1537 84.5319 53.422 72.4662 53.7715 60.1701L68.2641 49.9576L83.4167 55.1247L91.6959 81.9195L91.6979 81.9192ZM85.8442 51.0993L107.808 35.6221L108.054 18.6137L93.829 7.95983C82.053 11.4596 71.7516 18.7283 64.5066 28.6496L69.7473 45.6105L85.8439 51.0997L85.8442 51.0993ZM120.748 47.6743L131.442 55.6827L122.818 80.9725L96.0939 80.5853L88.206 55.0564L110.052 39.6619L120.75 47.6723L120.748 47.6743ZM159.008 35.0711C162.487 41.5026 164.663 48.5569 165.413 55.8304L154.672 47.7864L159.008 35.0711ZM150.208 100.321C145.171 105.593 139.157 109.834 132.499 112.806L136.824 100.128L150.208 100.321ZM85.4919 112.124C78.9199 108.958 73.0277 104.542 68.1445 99.1227L81.5348 99.3167L85.4906 112.124L85.4919 112.124ZM54.2439 54.218L65.2126 46.4885L61.2462 33.6548C57.5829 39.9825 55.2034 46.9705 54.2439 54.2189L54.2439 54.218Z" fill="white" fill-opacity="0.05"/>
</svg>
