<svg width="20" height="21" viewBox="0 0 20 21" fill="none" xmlns="http://www.w3.org/2000/svg">
<g clip-path="url(#clip0_281_780)">
<path d="M4.07667 13.4919C6.04931 15.85 8.42395 17.7066 11.1343 19.0203C12.1662 19.5093 13.5462 20.0895 15.0837 20.189C15.179 20.1931 15.2702 20.1973 15.3655 20.1973C16.3974 20.1973 17.2263 19.8409 17.9018 19.1073C17.9059 19.1032 17.9142 19.0949 17.9184 19.0866C18.1587 18.7965 18.4322 18.5354 18.7182 18.2578C18.913 18.0713 19.1119 17.8765 19.3025 17.6776C20.1852 16.7576 20.1852 15.5889 19.2942 14.6979L16.8036 12.2072C16.3808 11.7679 15.8753 11.5358 15.3448 11.5358C14.8143 11.5358 14.3046 11.7679 13.8695 12.2031L12.3858 13.6867C12.2491 13.608 12.1082 13.5375 11.9755 13.4712C11.8098 13.3883 11.6564 13.3096 11.5197 13.2225C10.1687 12.3647 8.94198 11.2458 7.76917 9.80771C7.17654 9.05761 6.7787 8.42768 6.50103 7.78533C6.89059 7.43307 7.25528 7.06424 7.60754 6.70369C7.73187 6.57522 7.86034 6.44675 7.98881 6.31828C8.43638 5.8707 8.67675 5.35267 8.67675 4.82636C8.67675 4.30004 8.44053 3.78201 7.98881 3.33444L6.75383 2.09946C6.60878 1.95441 6.47202 1.81351 6.33112 1.66846C6.0576 1.38666 5.77165 1.09656 5.48984 0.835475C5.06299 0.416909 4.56154 0.197266 4.03108 0.197266C3.50476 0.197266 2.99917 0.416909 2.55574 0.83962L1.0058 2.38956C0.442187 2.95317 0.123082 3.63697 0.0567745 4.42851C-0.0219656 5.41898 0.16038 6.47161 0.632821 7.74389C1.35806 9.71239 2.45213 11.54 4.07667 13.4919ZM1.06796 4.51554C1.11769 3.96436 1.32905 3.50435 1.72689 3.10651L3.26854 1.56486C3.50891 1.33278 3.77414 1.2126 4.03108 1.2126C4.28388 1.2126 4.54082 1.33278 4.77704 1.57315C5.0547 1.83009 5.31579 2.09946 5.59759 2.38541C5.7385 2.53046 5.88355 2.67551 6.02859 2.8247L7.26357 4.05968C7.52051 4.31662 7.65313 4.5777 7.65313 4.83465C7.65313 5.09159 7.52051 5.35267 7.26357 5.60962C7.1351 5.73809 7.00663 5.8707 6.87816 5.99917C6.49275 6.38873 6.1322 6.75756 5.73435 7.10982C5.72607 7.11811 5.72192 7.12226 5.71363 7.13054C5.36966 7.47451 5.42354 7.80191 5.50642 8.05056C5.51057 8.06299 5.51471 8.07128 5.51886 8.08371C5.83796 8.8504 6.28139 9.57978 6.97348 10.4501C8.21674 11.9834 9.52631 13.1728 10.9685 14.0887C11.1467 14.2047 11.3373 14.2959 11.5155 14.3871C11.6813 14.47 11.8346 14.5487 11.9714 14.6357C11.988 14.644 12.0004 14.6523 12.017 14.6606C12.1537 14.731 12.2864 14.7642 12.419 14.7642C12.7505 14.7642 12.966 14.5528 13.0365 14.4824L14.5864 12.9325C14.8268 12.6921 15.0879 12.5636 15.3448 12.5636C15.6598 12.5636 15.9167 12.7584 16.0783 12.9325L18.5773 15.4273C19.0746 15.9246 19.0704 16.4633 18.5649 16.9896C18.3908 17.1761 18.2085 17.3543 18.0137 17.5408C17.7236 17.8226 17.4211 18.1127 17.1475 18.4401C16.6709 18.954 16.1032 19.1944 15.3697 19.1944C15.2992 19.1944 15.2246 19.1902 15.1542 19.1861C13.7949 19.099 12.5309 18.5686 11.5818 18.1169C9.00414 16.8695 6.7414 15.0999 4.86407 12.8537C3.31827 10.993 2.27808 9.26067 1.59014 7.40406C1.16328 6.2644 1.00166 5.34853 1.06796 4.51554Z" fill="#C42221"/>
</g>
<defs>
<clipPath id="clip0_281_780">
<rect width="20" height="20" fill="white" transform="translate(0 0.197266)"/>
</clipPath>
</defs>
</svg>
