<svg width="24" height="24" viewBox="0 0 24 24" fill="none" xmlns="http://www.w3.org/2000/svg">
<g clip-path="url(#clip0_395_34)">
<path d="M12.8051 11.8285C12.5508 11.9389 12.2766 11.9959 11.9993 11.9959C11.7221 11.9959 11.4479 11.9389 11.1936 11.8285L1.4222 7.30276C1.26353 7.22272 1.13019 7.10022 1.03702 6.94888C0.94386 6.79755 0.894531 6.62332 0.894531 6.44561C0.894531 6.2679 0.94386 6.09367 1.03702 5.94234C1.13019 5.791 1.26353 5.6685 1.4222 5.58847L11.1936 1.02847C11.4479 0.918058 11.7221 0.861084 11.9993 0.861084C12.2766 0.861084 12.5508 0.918058 12.8051 1.02847L22.5765 5.55418C22.7352 5.63421 22.8685 5.75672 22.9617 5.90805C23.0548 6.05939 23.1042 6.23361 23.1042 6.41133C23.1042 6.58904 23.0548 6.76326 22.9617 6.9146C22.8685 7.06593 22.7352 7.18844 22.5765 7.26847L12.8051 11.8285Z" stroke="white" stroke-linecap="round" stroke-linejoin="round"/>
<path d="M23.1431 12.5999L12.686 17.417C12.4627 17.5189 12.22 17.5716 11.9746 17.5716C11.7291 17.5716 11.4865 17.5189 11.2631 17.417L0.857422 12.5999" stroke="white" stroke-linecap="round" stroke-linejoin="round"/>
<path d="M23.1431 18.1714L12.686 22.9885C12.4627 23.0904 12.22 23.1431 11.9746 23.1431C11.7291 23.1431 11.4865 23.0904 11.2631 22.9885L0.857422 18.1714" stroke="white" stroke-linecap="round" stroke-linejoin="round"/>
</g>
<defs>
<clipPath id="clip0_395_34">
<rect width="24" height="24" fill="white"/>
</clipPath>
</defs>
</svg>
