<svg id="elCB6SnDQHc1" xmlns="http://www.w3.org/2000/svg" xmlns:xlink="http://www.w3.org/1999/xlink" viewBox="0 0 23 23" shape-rendering="geometricPrecision" text-rendering="geometricPrecision">
<style><![CDATA[
#elCB6SnDQHc4_to {animation: elCB6SnDQHc4_to__to 2200ms linear 1 normal forwards}@keyframes elCB6SnDQHc4_to__to { 0% {transform: translate(17.95166px,4.500964px)} 2.272727% {transform: translate(17.95166px,4.500964px)} 83.181818% {transform: translate(4.325124px,17.941714px)} 100% {transform: translate(4.325124px,17.941714px)}}
]]></style>
<defs><linearGradient id="elCB6SnDQHc2-fill" x1="0.179913" y1="11.5808" x2="23.0132" y2="11.5808" spreadMethod="pad" gradientUnits="userSpaceOnUse" gradientTransform="translate(0 0)"><stop id="elCB6SnDQHc2-fill-0" offset="0%" stop-color="#fe651b"/><stop id="elCB6SnDQHc2-fill-1" offset="100%" stop-color="#ffaa52"/></linearGradient><linearGradient id="elCB6SnDQHc3-fill" x1="5.51261" y1="11.5696" x2="17.7339" y2="11.5696" spreadMethod="pad" gradientUnits="userSpaceOnUse" gradientTransform="translate(0 0)"><stop id="elCB6SnDQHc3-fill-0" offset="0%" stop-color="#fe651b"/><stop id="elCB6SnDQHc3-fill-1" offset="100%" stop-color="#ffaa52"/></linearGradient><linearGradient id="elCB6SnDQHc4-fill" x1="10.3655" y1="6.50374" x2="23.0054" y2="6.50374" spreadMethod="pad" gradientUnits="userSpaceOnUse" gradientTransform="translate(0 0)"><stop id="elCB6SnDQHc4-fill-0" offset="0%" stop-color="#fe651b"/><stop id="elCB6SnDQHc4-fill-1" offset="100%" stop-color="#ffaa52"/></linearGradient></defs><path d="M11.6396,0.188335c1.5522-.03786,3.0288.312345,4.4674.899175.3786.15144.426.30288.1041.58683-.2744.23662-.5205.51111-.7761.76666-.1514.15144-.2555.31235-.3123.52058-.1799.62469-.1893.61522-.8329.40699C9.19759,1.69327,3.79309,5.05334,3.03589,10.3537c-.67202,4.7136,2.60287,9.0959,7.31641,9.8058c4.7041.7004,9.1905-2.6502,9.8152-7.3449.1893-1.4292.0663-2.83-.4543-4.1835-.1231-.33127-.1041-.47325.2934-.50164.6152-.04733.9181-.5679,1.3156-.9465.5963-.5679.5869-.57736.8803.1893C24.9,14.329,20.4799,21.8915,13.1161,22.8948c-6.23743.8519-11.96374-3.5115-12.825058-9.7773C-0.560807,6.88008,3.84041,1.1159,10.0873,0.27352c.5206-.066255,1.0317-.066255,1.5523-.085185Z" transform="matrix(1 0 0 1.016266 0-.188577)" fill="url(#elCB6SnDQHc2-fill)"/><path d="M5.51562,11.5748c0-4.32546,4.34443-7.26907,8.35758-5.66948.4922.19876.5017.24609.1231.61522-.5017.50164-1.0033,1.00329-1.505,1.50493-.1609.16091-.3313.25556-.5868.22716C10.021,8.05387,8.44031,9.37897,8.26047,11.395c-.14197,1.6375,1.06954,3.2181,2.86793,3.4831c2.0728.3124,4.0226-1.4481,3.7954-3.6251-.0284-.2271.0473-.388.2083-.5489.5395-.5301,1.079-1.06012,1.5995-1.60908.2745-.29342.3786-.17984.5111.13251c1.505,3.49257-.6436,7.54357-4.4296,8.32917-3.76703.7951-7.29748-2.1012-7.29748-5.9819Z" fill="url(#elCB6SnDQHc3-fill)"/><g id="elCB6SnDQHc4_to" transform="translate(17.95166,4.500964)"><path d="M19.2115,2.09078c1.0506-.53004,1.5523-.53951,2.0066-.05679.4449.47324.4165.96542-.1325,1.94978.4827,0,.937,0,1.3819,0c.1988,0,.3881.0284.4827.22716.1041.2177.0284.407-.123.55844-.833.84238-1.6753,1.6753-2.5083,2.50822-.1609.1609-.3596.17983-.5679.17983-.5868,0-1.1642.01893-1.751-.00946-.3691-.01893-.6152.11358-.8708.36913-1.4481,1.46707-2.9152,2.92471-4.3823,4.38231-.7288.7288-1.4292.8234-1.9876.2745-.5868-.5774-.5111-1.2873.2177-2.0255c1.4671-1.47658,2.9436-2.95312,4.4201-4.41073.2461-.23662.3976-.49218.3408-.83291-.284-1.58066.2745-2.80164,1.5617-3.73867.407-.29342.7193-.700413,1.079-1.060082.1704-.160905.3597-.274485.5963-.17037.2272.09465.2461.302879.2461.520574-.0095.435388-.0095.870778-.0095,1.334568Z" transform="translate(-5.323932,-17.137366)" fill="url(#elCB6SnDQHc4-fill)"/></g></svg>
