<svg width="171" height="171" viewBox="0 0 171 171" fill="none" xmlns="http://www.w3.org/2000/svg">
<path fill-rule="evenodd" clip-rule="evenodd" d="M60.457 165.325C56.804 165.273 53.166 164.865 49.592 164.107L60.587 156.36L71.3527 164.423C67.759 165.077 64.11 165.379 60.457 165.325ZM112.02 63.2553C111.583 63.6803 110.994 63.9143 110.384 63.9053C109.774 63.8963 109.192 63.6464 108.767 63.2084C108.342 62.7704 108.108 62.1824 108.117 61.5714C108.126 60.9614 108.377 60.3804 108.814 59.9554L162.893 7.42136C163.331 6.99636 163.919 6.76235 164.53 6.77135C165.14 6.78035 165.721 7.03135 166.146 7.46835C166.572 7.90635 166.805 8.49535 166.797 9.10535C166.788 9.71535 166.537 10.2964 166.099 10.7224L112.02 63.2553ZM88.2397 47.3314L126.525 10.1414C126.963 9.71636 127.213 9.13435 127.222 8.52435C127.231 7.91435 126.997 7.32534 126.572 6.88734C126.147 6.45034 125.565 6.19935 124.955 6.19035C124.345 6.18135 123.756 6.41535 123.319 6.84035L85.0342 44.0333C84.8175 44.2433 84.6443 44.4944 84.5247 44.7724C84.405 45.0494 84.3412 45.3474 84.3368 45.6494C84.3324 45.9524 84.3876 46.2523 84.4992 46.5323C84.6107 46.8133 84.7765 47.0694 84.987 47.2864C85.1976 47.5034 85.4487 47.6763 85.7261 47.7953C86.0035 47.9153 86.3018 47.9794 86.6039 47.9834C86.906 47.9884 87.206 47.9324 87.4868 47.8214C87.7675 47.7094 88.0236 47.5434 88.2403 47.3334L88.2397 47.3314ZM127.247 87.4884L165.525 50.3034C165.963 49.8784 166.214 49.2963 166.223 48.6863C166.231 48.0763 165.998 47.4874 165.572 47.0494C165.147 46.6124 164.566 46.3613 163.955 46.3523C163.345 46.3433 162.757 46.5773 162.319 47.0023L124.041 84.1887C123.603 84.6139 123.353 85.1954 123.344 85.8055C123.335 86.4156 123.569 87.0042 123.994 87.4419C124.419 87.8796 125.001 88.1305 125.611 88.1393C126.221 88.1482 126.809 87.9136 127.247 87.4884ZM52.214 43.3054C51.997 43.5154 51.741 43.6814 51.46 43.7934C51.18 43.9044 50.88 43.9594 50.578 43.9554C50.275 43.9504 49.977 43.8873 49.7 43.7673C49.422 43.6473 49.171 43.4744 48.961 43.2584C48.75 43.0414 48.584 42.7853 48.473 42.5043C48.361 42.2233 48.306 41.9234 48.311 41.6214C48.315 41.3194 48.379 41.0213 48.498 40.7433C48.618 40.4663 48.791 40.2153 49.008 40.0043L83.7377 6.26735C83.9544 6.05735 84.2104 5.89136 84.4912 5.77936C84.772 5.66836 85.072 5.61336 85.3741 5.61736C85.6762 5.62136 85.9744 5.68534 86.2519 5.80534C86.5293 5.92534 86.7804 6.09835 86.991 6.31435C87.2015 6.53135 87.3672 6.78734 87.4788 7.06834C87.5904 7.34934 87.6455 7.64935 87.6412 7.95135C87.6368 8.25335 87.5729 8.55135 87.4533 8.82935C87.3337 9.10635 87.1605 9.35734 86.9438 9.56834L52.214 43.3054ZM130.227 123.618C129.789 124.043 129.201 124.277 128.591 124.268C127.98 124.259 127.399 124.008 126.974 123.57C126.549 123.133 126.315 122.544 126.324 121.934C126.332 121.324 126.583 120.742 127.021 120.317L161.746 86.5847C162.184 86.1595 162.773 85.9256 163.383 85.9345C163.993 85.9433 164.574 86.1943 165 86.6319C165.425 87.0696 165.659 87.6581 165.65 88.2682C165.641 88.8783 165.39 89.46 164.952 89.8852L130.227 123.618ZM58.591 135.311L37.085 119.204L20.837 124.224L15.1049 141.027C22.0599 151.154 32.146 158.718 43.816 162.557L58.345 152.32L58.591 135.311ZM34.7769 115.11L19.481 119.836L5.28995 109.209C5.29695 96.9122 9.37396 84.9635 16.884 75.2269L34.6089 75.4837L43.829 88.5673L34.7769 115.111V115.11ZM47.226 85.4116L75.9973 85.8284L85.2228 73.5098L79.9903 56.5723C68.399 52.4823 55.787 52.2994 44.082 56.0524L38.3609 72.8309L47.226 85.4116ZM79.3021 89.0812L88.9039 76.26L106.616 76.5165C113.846 86.4684 117.578 98.5342 117.228 110.83L102.736 121.043L87.5833 115.876L79.3041 89.0808L79.3021 89.0812ZM85.1558 119.901L63.192 135.378L62.946 152.387L77.171 163.041C88.947 159.541 99.2484 152.272 106.493 142.351L101.253 125.39L85.1558 119.901ZM50.252 123.326L39.558 115.318L48.182 90.0278L74.9061 90.4151L82.794 115.944L60.948 131.338L50.25 123.328L50.252 123.326ZM11.992 135.929C8.51296 129.498 6.33696 122.443 5.58696 115.17L16.328 123.214L11.992 135.929ZM20.792 70.6794C25.829 65.4074 31.843 61.1664 38.501 58.1944L34.1759 70.8724L20.792 70.6794ZM85.5081 58.8764C92.0801 62.0424 97.9723 66.4583 102.855 71.8776L89.4652 71.6836L85.5094 58.8764H85.5081ZM116.756 116.782L105.787 124.512L109.754 137.346C113.417 131.018 115.797 124.031 116.756 116.782Z" fill="white" fill-opacity="0.05"/>
</svg>
