<svg width="24" height="24" viewBox="0 0 24 24" fill="none" xmlns="http://www.w3.org/2000/svg">
<g clip-path="url(#clip0_395_16)">
<path d="M5.57171 10.2857C8.17534 10.2857 10.286 8.17509 10.286 5.57146C10.286 2.96784 8.17534 0.857178 5.57171 0.857178C2.96808 0.857178 0.857422 2.96784 0.857422 5.57146C0.857422 8.17509 2.96808 10.2857 5.57171 10.2857Z" stroke="white" stroke-linecap="round" stroke-linejoin="round"/>
<path d="M18.4291 10.2857C21.0328 10.2857 23.1434 8.17509 23.1434 5.57146C23.1434 2.96784 21.0328 0.857178 18.4291 0.857178C15.8255 0.857178 13.7148 2.96784 13.7148 5.57146C13.7148 8.17509 15.8255 10.2857 18.4291 10.2857Z" stroke="white" stroke-linecap="round" stroke-linejoin="round"/>
<path d="M5.57171 23.1429C8.17534 23.1429 10.286 21.0323 10.286 18.4286C10.286 15.825 8.17534 13.7144 5.57171 13.7144C2.96808 13.7144 0.857422 15.825 0.857422 18.4286C0.857422 21.0323 2.96808 23.1429 5.57171 23.1429Z" stroke="white" stroke-linecap="round" stroke-linejoin="round"/>
<path d="M18.4291 23.1429C21.0328 23.1429 23.1434 21.0323 23.1434 18.4286C23.1434 15.825 21.0328 13.7144 18.4291 13.7144C15.8255 13.7144 13.7148 15.825 13.7148 18.4286C13.7148 21.0323 15.8255 23.1429 18.4291 23.1429Z" stroke="white" stroke-linecap="round" stroke-linejoin="round"/>
</g>
<defs>
<clipPath id="clip0_395_16">
<rect width="24" height="24" fill="white"/>
</clipPath>
</defs>
</svg>
