<svg width="30" height="30" viewBox="0 0 30 30" fill="none" xmlns="http://www.w3.org/2000/svg">
<path d="M14.9997 26.8285C22.1005 26.8285 27.8569 21.0722 27.8569 13.9714C27.8569 6.8706 22.1005 1.11426 14.9997 1.11426C7.89892 1.11426 2.14258 6.8706 2.14258 13.9714C2.14258 21.0722 7.89892 26.8285 14.9997 26.8285Z" stroke="white" stroke-linecap="round" stroke-linejoin="round"/>
<path d="M21.5791 25.0283C23.6003 25.9292 25.4105 27.243 26.8934 28.8855" stroke="white" stroke-linecap="round" stroke-linejoin="round"/>
<path d="M3.10645 28.8855C4.58934 27.243 6.39958 25.9292 8.42073 25.0283" stroke="white" stroke-linecap="round" stroke-linejoin="round"/>
<path d="M14.9989 20.4001C18.5493 20.4001 21.4275 17.5219 21.4275 13.9715C21.4275 10.4211 18.5493 7.54297 14.9989 7.54297C11.4485 7.54297 8.57031 10.4211 8.57031 13.9715C8.57031 17.5219 11.4485 20.4001 14.9989 20.4001Z" stroke="white" stroke-linecap="round" stroke-linejoin="round"/>
<path d="M15.0001 15.0428C15.5919 15.0428 16.0716 14.5631 16.0716 13.9713C16.0716 13.3796 15.5919 12.8999 15.0001 12.8999C14.4084 12.8999 13.9287 13.3796 13.9287 13.9713C13.9287 14.5631 14.4084 15.0428 15.0001 15.0428Z" stroke="white" stroke-linecap="round" stroke-linejoin="round"/>
</svg>
