<svg width="20" height="21" viewBox="0 0 20 21" fill="none" xmlns="http://www.w3.org/2000/svg">
<g clip-path="url(#clip0_189_303)">
<path d="M17.0685 3.23356C16.1505 2.31559 15.0813 1.59508 13.8903 1.09093C12.6572 0.569976 11.3485 0.305298 9.99783 0.305298C8.64923 0.307398 7.34054 0.569976 6.10748 1.09303C4.91643 1.59718 3.84721 2.31769 2.92924 3.23566C2.01127 4.15363 1.29076 5.22285 0.786608 6.4139C0.265655 7.64696 0.000976562 8.95565 0.000976562 10.3063C0.000976562 11.655 0.265655 12.9657 0.786608 14.1988C1.29076 15.3898 2.01127 16.4591 2.92924 17.377C3.84721 18.295 4.91643 19.0155 6.10748 19.5197C7.34054 20.0406 8.64923 20.3053 9.99993 20.3053C11.3485 20.3053 12.6593 20.0406 13.8924 19.5197C15.0834 19.0155 16.1527 18.295 17.0706 17.377C17.9886 16.4591 18.7091 15.3898 19.2133 14.1988C19.7342 12.9657 19.9989 11.6571 19.9989 10.3063C19.9989 8.95775 19.7342 7.64696 19.2133 6.4139C18.707 5.22075 17.9865 4.15363 17.0685 3.23356ZM4.46479 2.56346C4.55512 2.49414 4.64335 2.42062 4.73577 2.3555C5.22102 2.0152 5.75878 1.74002 6.30494 1.51105C7.46868 1.02371 8.73325 0.767434 9.99783 0.767434C10.8402 0.767434 11.7035 0.880868 12.5164 1.10353C12.1951 1.23377 11.8022 1.48164 11.1427 2.04461C10.5944 1.98579 10.0398 1.98369 9.48317 2.03621C8.75634 2.10553 8.02534 2.26728 7.31113 2.51935C6.66624 2.74622 6.15579 3.00459 5.81129 3.20205C5.28404 3.013 4.60343 2.79033 4.26733 2.6811C4.31985 2.6979 4.42908 2.59077 4.46479 2.56346ZM13.5731 5.0632L11.8632 9.73078L7.76067 10.5185L4.37027 7.01678C4.59923 5.42871 5.68735 4.02129 5.68735 4.02129C5.69366 4.01709 6.40367 3.50454 7.5422 3.10752C8.20602 2.87436 8.8824 2.72521 9.5567 2.66219C10.1071 2.61178 10.6553 2.62018 11.1973 2.6853L13.5731 5.0632ZM0.82652 9.97235C0.721489 10.6509 0.698382 11.3546 0.752998 12.0625C0.671074 11.8986 0.605955 11.76 0.557641 11.6487C0.494622 11.2096 0.463113 10.7601 0.463113 10.3022C0.463113 8.89475 0.767703 7.55666 1.31596 6.353C1.25505 6.98319 1.28446 7.63648 1.32857 8.13223C1.0933 8.72248 0.925249 9.33796 0.82652 9.97235ZM1.65626 13.6085C1.55964 13.2535 1.4462 12.7368 1.38949 12.1171C1.32647 11.4176 1.34537 10.7223 1.4504 10.0564C1.53023 9.54592 1.65837 9.0502 1.83482 8.57334C2.52592 7.98936 3.44179 7.64696 3.94804 7.48942L7.27542 10.926L6.92672 14.6924L3.67496 15.7785C2.84732 15.1693 2.17092 14.3626 1.65626 13.6085ZM11.5376 19.0617C10.8129 19.5365 8.98113 19.6499 8.23751 19.6772C7.41826 19.5239 6.62213 19.2613 5.87219 18.9C5.21679 18.5849 4.59501 18.1942 4.02784 17.7363C4.03835 17.7174 3.93962 16.7153 3.94382 16.3499L7.22919 15.2533L11.0208 16.8939L11.5438 19.0554C11.5397 19.0597 11.5376 19.0617 11.5376 19.0617ZM17.8373 15.7364C17.2723 16.5515 16.5959 17.3098 15.7829 17.8854C15.0204 18.4231 13.9995 18.608 13.092 18.7571C13.0227 18.7676 12.1552 18.9105 12.1489 18.8811L11.6258 16.7174L14.2957 13.9383L17.831 13.6127C17.8857 14.1757 17.9571 14.997 17.9991 15.4991C17.9445 15.5789 17.892 15.6587 17.8373 15.7364ZM17.892 12.909C17.8794 12.93 17.8667 12.9531 17.8541 12.9784L14.3335 13.3018L12.4387 9.98705L14.1529 5.30897L16.5728 5.46232C17.0874 5.89295 17.5433 6.37189 17.9298 6.88864C18.4129 7.53773 18.7889 8.24984 19.0452 9.00396C18.7763 11.3399 18.1566 12.5036 17.892 12.909ZM19.1544 7.65326C18.9465 7.25205 18.7028 6.86553 18.4276 6.49792C17.9928 5.91605 17.476 5.38039 16.89 4.90355C16.7828 4.3721 16.4887 3.53605 15.6989 2.65799C15.7136 2.66849 15.7283 2.6811 15.743 2.6916C15.7914 2.72731 15.8376 2.76512 15.8859 2.80083C16.4299 3.22936 16.9257 3.7146 17.3647 4.24816C18.1798 5.24175 18.7952 6.39499 19.1565 7.63226C19.1544 7.64066 19.1544 7.64696 19.1544 7.65326Z" fill="#C42221"/>
</g>
<defs>
<clipPath id="clip0_189_303">
<rect width="20" height="20" fill="white" transform="translate(0 0.305298)"/>
</clipPath>
</defs>
</svg>
