<svg width="24" height="24" viewBox="0 0 24 24" fill="none" xmlns="http://www.w3.org/2000/svg">
<g clip-path="url(#clip0_395_23)">
<path d="M2.57171 10.2856H4.28599C4.51332 10.2856 4.73134 10.376 4.89208 10.5367C5.05283 10.6974 5.14314 10.9155 5.14314 11.1428V15.4285C5.14314 15.6558 5.05283 15.8738 4.89208 16.0346C4.73134 16.1953 4.51332 16.2856 4.28599 16.2856H2.57171C2.11705 16.2856 1.68102 16.105 1.35952 15.7835C1.03803 15.4621 0.857422 15.026 0.857422 14.5714V11.9999C0.857422 11.5453 1.03803 11.1092 1.35952 10.7877C1.68102 10.4663 2.11705 10.2856 2.57171 10.2856V10.2856Z" stroke="white" stroke-linecap="round" stroke-linejoin="round"/>
<path d="M21.4283 16.2856H19.714C19.4867 16.2856 19.2687 16.1953 19.1079 16.0346C18.9472 15.8738 18.8569 15.6558 18.8569 15.4285V11.1428C18.8569 10.9155 18.9472 10.6974 19.1079 10.5367C19.2687 10.3759 19.4867 10.2856 19.714 10.2856H21.4283C21.8829 10.2856 22.319 10.4663 22.6405 10.7877C22.962 11.1092 23.1426 11.5453 23.1426 11.9999V14.5714C23.1426 15.026 22.962 15.4621 22.6405 15.7835C22.319 16.105 21.8829 16.2856 21.4283 16.2856V16.2856Z" stroke="white" stroke-linecap="round" stroke-linejoin="round"/>
<path d="M16.2852 20.9999C17.1945 20.9999 18.0665 20.6387 18.7095 19.9957C19.3525 19.3527 19.7137 18.4807 19.7137 17.5714V16.2856" stroke="white" stroke-linecap="round" stroke-linejoin="round"/>
<path d="M14.144 18.8572C14.7123 18.8572 15.2573 19.0829 15.6592 19.4848C16.0611 19.8867 16.2868 20.4317 16.2868 21C16.2868 21.5684 16.0611 22.1134 15.6592 22.5153C15.2573 22.9171 14.7123 23.1429 14.144 23.1429H11.5725C11.0042 23.1429 10.4592 22.9171 10.0573 22.5153C9.65545 22.1134 9.42969 21.5684 9.42969 21C9.42969 20.4317 9.65545 19.8867 10.0573 19.4848C10.4592 19.0829 11.0042 18.8572 11.5725 18.8572H14.144Z" stroke="white" stroke-linecap="round" stroke-linejoin="round"/>
<path d="M4.28516 10.2857V8.57146C4.28516 6.52551 5.09791 4.56335 6.54462 3.11664C7.99133 1.66993 9.95349 0.857178 11.9994 0.857178C14.0454 0.857178 16.0076 1.66993 17.4543 3.11664C18.901 4.56335 19.7137 6.52551 19.7137 8.57146V10.2857" stroke="white" stroke-linecap="round" stroke-linejoin="round"/>
<path d="M9.42969 6.85718V9.42861" stroke="white" stroke-linecap="round" stroke-linejoin="round"/>
<path d="M14.5723 6.85718V9.42861" stroke="white" stroke-linecap="round" stroke-linejoin="round"/>
<path d="M9.42969 12.8572C9.42969 15.1372 14.5725 15.1372 14.5725 12.8572" stroke="white" stroke-linecap="round" stroke-linejoin="round"/>
</g>
<defs>
<clipPath id="clip0_395_23">
<rect width="24" height="24" fill="white"/>
</clipPath>
</defs>
</svg>
